REM Ripping Tool: trurip

FILE "Time Up's (World) (Aftermarket) (Unl).img" BINARY
  TRACK 01 MODE1/2352
    INDEX 01 00:00:00
  TRACK 02 AUDIO
    INDEX 00 00:33:09
    INDEX 01 00:35:09
  TRACK 03 AUDIO
    INDEX 01 04:22:41
  TRACK 04 AUDIO
    INDEX 01 05:18:03
  TRACK 05 AUDIO
    INDEX 01 08:57:49
  TRACK 06 AUDIO
    INDEX 01 12:48:52
  TRACK 07 AUDIO
    INDEX 01 15:48:06
  TRACK 08 AUDIO
    INDEX 01 19:25:24
  TRACK 09 AUDIO
    INDEX 01 23:04:18

REM DISC HASHES
REM CRC32 : 590ce7c4
REM MD5   : 923c54740a822eefd1ce05d3fce4ffa7
REM SHA1  : 7a309faefa57a04e00e5e7afc8a3140313da7f99

REM Gap Append Method: Prev [crc32]
REM Trk 01: 63fe9e12
REM Trk 02: f29f34f1
REM Trk 03: ef040362
REM Trk 04: 4400264e
REM Trk 05: 25a4ad0d
REM Trk 06: ffed911c
REM Trk 07: 30354325
REM Trk 08: d42439b6
REM Trk 09: b334382e

REM Gap Append Method: Prev [md5]
REM Trk 01: b24029d233435c9b4628dbb21c58d590
REM Trk 02: 4f54beb1739a69eee1762522c4cb2b11
REM Trk 03: 5398db752afce72e1c82947931f771f9
REM Trk 04: 31ec9df01d5ef8760c9af21d7bef03ac
REM Trk 05: bf4787583beba3b614a7ab29a8bb4331
REM Trk 06: b41b149b294c5e6561a67a0f3c7b6526
REM Trk 07: 293250a83716a427022546b88f12015c
REM Trk 08: deaa732201498b582c72b766c09513cc
REM Trk 09: 451c533b072e71e545448c114daee373

REM Gap Append Method: Prev [sha1]
REM Trk 01: daf9933899fc56f7be216cc85441f4457214212a
REM Trk 02: 354360f88f3072539f596b1b6d4d43d389b20e6c
REM Trk 03: 4c8b416ba00bb994f61e4b3f4ef1de5fb24ccb44
REM Trk 04: 2fcb58e848c3f1b6b9f5affc2438e4c297e9c74b
REM Trk 05: afdfea6e419a2bbed8df5bc850579ba13724f7e1
REM Trk 06: 9d0961c922f12e786892dc22801dd059cb843923
REM Trk 07: 43e968935a95614f98f2c437006622b41cd59aeb
REM Trk 08: c4e7eda6ea81e48a8bcc8fa07af875b685a0a591
REM Trk 09: 4171ca20203121acbb461a92dfeeba69d1fe4757

REM Gap Append Method: None [crc32]
REM Trk 01: e7e23739
REM Gap 02: 7abe247f
REM Trk 02: f29f34f1
REM Trk 03: ef040362
REM Trk 04: 4400264e
REM Trk 05: 25a4ad0d
REM Trk 06: ffed911c
REM Trk 07: 30354325
REM Trk 08: d42439b6
REM Trk 09: b334382e

REM Gap Append Method: None [md5]
REM Trk 01: 86437f8385becb56e38d4a5a4849b1b4
REM Gap 02: 9df204fbc98bb8965081cb30a89715fc
REM Trk 02: 4f54beb1739a69eee1762522c4cb2b11
REM Trk 03: 5398db752afce72e1c82947931f771f9
REM Trk 04: 31ec9df01d5ef8760c9af21d7bef03ac
REM Trk 05: bf4787583beba3b614a7ab29a8bb4331
REM Trk 06: b41b149b294c5e6561a67a0f3c7b6526
REM Trk 07: 293250a83716a427022546b88f12015c
REM Trk 08: deaa732201498b582c72b766c09513cc
REM Trk 09: 451c533b072e71e545448c114daee373

REM Gap Append Method: None [sha1]
REM Trk 01: b9cefafffa4852f073b5518e2b0ee2a5473c7a67
REM Gap 02: cbe29e0bd725ef1194f8c47619dd42078e841de2
REM Trk 02: 354360f88f3072539f596b1b6d4d43d389b20e6c
REM Trk 03: 4c8b416ba00bb994f61e4b3f4ef1de5fb24ccb44
REM Trk 04: 2fcb58e848c3f1b6b9f5affc2438e4c297e9c74b
REM Trk 05: afdfea6e419a2bbed8df5bc850579ba13724f7e1
REM Trk 06: 9d0961c922f12e786892dc22801dd059cb843923
REM Trk 07: 43e968935a95614f98f2c437006622b41cd59aeb
REM Trk 08: c4e7eda6ea81e48a8bcc8fa07af875b685a0a591
REM Trk 09: 4171ca20203121acbb461a92dfeeba69d1fe4757

REM Gap Append Method: Next [crc32]
REM Trk 01: e7e23739
REM Trk 02: 57f2eebe
REM Trk 03: ef040362
REM Trk 04: 4400264e
REM Trk 05: 25a4ad0d
REM Trk 06: ffed911c
REM Trk 07: 30354325
REM Trk 08: d42439b6
REM Trk 09: b334382e

REM Gap Append Method: Next [md5]
REM Trk 01: 86437f8385becb56e38d4a5a4849b1b4
REM Trk 02: caf78fdfc33b719f33fea19996d1c26a
REM Trk 03: 5398db752afce72e1c82947931f771f9
REM Trk 04: 31ec9df01d5ef8760c9af21d7bef03ac
REM Trk 05: bf4787583beba3b614a7ab29a8bb4331
REM Trk 06: b41b149b294c5e6561a67a0f3c7b6526
REM Trk 07: 293250a83716a427022546b88f12015c
REM Trk 08: deaa732201498b582c72b766c09513cc
REM Trk 09: 451c533b072e71e545448c114daee373

REM Gap Append Method: Next [sha1]
REM Trk 01: b9cefafffa4852f073b5518e2b0ee2a5473c7a67
REM Trk 02: 200b846e3f937ea917ab73adc7afa1dcb469c594
REM Trk 03: 4c8b416ba00bb994f61e4b3f4ef1de5fb24ccb44
REM Trk 04: 2fcb58e848c3f1b6b9f5affc2438e4c297e9c74b
REM Trk 05: afdfea6e419a2bbed8df5bc850579ba13724f7e1
REM Trk 06: 9d0961c922f12e786892dc22801dd059cb843923
REM Trk 07: 43e968935a95614f98f2c437006622b41cd59aeb
REM Trk 08: c4e7eda6ea81e48a8bcc8fa07af875b685a0a591
REM Trk 09: 4171ca20203121acbb461a92dfeeba69d1fe4757

